<svg width="800px" height="800px" viewBox="0 0 24 24" fill="none" xmlns="http://www.w3.org/2000/svg">
<g id="SVGRepo_bgCarrier" stroke-width="0"/>
<g id="SVGRepo_tracerCarrier" stroke-linecap="round" stroke-linejoin="round"/>
<g id="SVGRepo_iconCarrier"> <path d="M12 21C16.9706 21 21 16.9706 21 12C21 7.02944 16.9706 3 12 3C7.02944 3 3 7.02944 3 12C3 16.9706 7.02944 21 12 21Z" stroke="#ffffff" stroke-width="2" stroke-linecap="round" stroke-linejoin="round"/> <path d="M3.6 9H20.4" stroke="#ffffff" stroke-width="2" stroke-linecap="round" stroke-linejoin="round"/> <path d="M3.6 15H20.4" stroke="#ffffff" stroke-width="2" stroke-linecap="round" stroke-linejoin="round"/> <path d="M12 3C14.2091 3 16 7.02944 16 12C16 16.9706 14.2091 21 12 21C9.79086 21 8 16.9706 8 12C8 7.02944 9.79086 3 12 3Z" stroke="#ffffff" stroke-width="2" stroke-linecap="round" stroke-linejoin="round"/> </g>
</svg>
